<svg width="13.000000" height="12.398438" viewBox="0 0 13 12.3984" fill="none" xmlns="http://www.w3.org/2000/svg" xmlns:xlink="http://www.w3.org/1999/xlink">
	<desc>
			Created with Pixso.
	</desc>
	<defs/>
	<path id="" d="M13 4.80469C13 4.57031 12.75 4.47656 12.5625 4.44531L8.64062 3.875L6.88281 0.320312C6.8125 0.171875 6.67969 0 6.5 0C6.32031 0 6.1875 0.171875 6.11719 0.320312L4.35938 3.875L0.4375 4.44531C0.242188 4.47656 0 4.57031 0 4.80469C0 4.94531 0.101562 5.07812 0.195313 5.17969L3.03906 7.94531L2.36719 11.8516C2.35938 11.9062 2.35156 11.9531 2.35156 12.0078C2.35156 12.2109 2.45312 12.3984 2.67969 12.3984C2.78906 12.3984 2.89062 12.3594 2.99219 12.3047L6.5 10.4609L10.0078 12.3047C10.1016 12.3594 10.2109 12.3984 10.3203 12.3984C10.5469 12.3984 10.6406 12.2109 10.6406 12.0078C10.6406 11.9531 10.6406 11.9062 10.6328 11.8516L9.96094 7.94531L12.7969 5.17969C12.8984 5.07812 13 4.94531 13 4.80469Z" fill="#FFC816" fill-opacity="1.000000" fill-rule="evenodd"/>
</svg>
